<svg width="17" height="5" viewBox="0 0 17 5" fill="none" xmlns="http://www.w3.org/2000/svg">
<path d="M2.10353 4.21333C2.51957 4.21333 2.92626 4.08978 3.27219 3.8583C3.61811 3.62681 3.88773 3.2978 4.04694 2.91285C4.20615 2.52791 4.24781 2.10433 4.16664 1.69568C4.08547 1.28702 3.88513 0.911652 3.59095 0.617029C3.29677 0.322407 2.92195 0.121766 2.51391 0.04048C2.10586 -0.0408062 1.68291 0.000912779 1.29854 0.160361C0.914174 0.31981 0.585647 0.589827 0.354509 0.936266C0.12337 1.28271 0 1.69001 0 2.10667C0 2.66539 0.221621 3.20123 0.61611 3.59631C1.0106 3.99138 1.54564 4.21333 2.10353 4.21333ZM10.5176 2.10667C10.5176 2.52333 10.3943 2.93063 10.1631 3.27707C9.932 3.62351 9.60347 3.89353 9.2191 4.05297C8.83473 4.21242 8.41178 4.25414 8.00374 4.17285C7.5957 4.09157 7.22088 3.89093 6.9267 3.59631C6.63251 3.30168 6.43217 2.92631 6.35101 2.51766C6.26984 2.109 6.3115 1.68542 6.47071 1.30048C6.62992 0.915538 6.89954 0.586522 7.24546 0.355038C7.59138 0.123555 7.99808 9.46921e-07 8.41412 9.46921e-07C8.97201 9.46921e-07 9.50705 0.221953 9.90154 0.617029C10.296 1.01211 10.5176 1.54794 10.5176 2.10667ZM16.8282 2.10667C16.8282 2.52333 16.7049 2.93063 16.4737 3.27707C16.2426 3.62351 15.9141 3.89353 15.5297 4.05297C15.1453 4.21242 14.7224 4.25414 14.3143 4.17285C13.9063 4.09157 13.5315 3.89093 13.2373 3.59631C12.9431 3.30168 12.7428 2.92631 12.6616 2.51766C12.5804 2.109 12.6221 1.68542 12.7813 1.30048C12.9405 0.915538 13.2101 0.586522 13.556 0.355038C13.902 0.123555 14.3087 9.46921e-07 14.7247 9.46921e-07C15.2826 9.46921e-07 15.8176 0.221953 16.2121 0.617029C16.6066 1.01211 16.8282 1.54794 16.8282 2.10667Z" fill="black"/>
</svg>
