<svg width="66" height="24" viewBox="0 0 66 24" fill="none" xmlns="http://www.w3.org/2000/svg">
<path d="M19.5013 13.8C19.1063 14.94 17.9313 16.96 16.7213 16.98C15.9163 16.98 15.6613 16.48 14.7213 16.48C13.7813 16.48 13.5163 16.94 12.7563 16.98C11.4713 17.03 9.48633 14.065 9.48633 11.48C9.48633 9.105 11.1413 7.93 12.5863 7.91C13.3613 7.91 14.0863 8.41 14.5863 8.41C15.0863 8.41 15.9513 7.765 16.8863 7.86C17.3192 7.87539 17.7427 7.99084 18.1235 8.1973C18.5044 8.40377 18.8322 8.69562 19.0813 9.05C18.6628 9.31169 18.3248 9.6841 18.1048 10.126C17.8848 10.5679 17.7913 11.0621 17.8348 11.5538C17.8783 12.0455 18.057 12.5156 18.3511 12.912C18.6452 13.3085 19.0433 13.6158 19.5013 13.8ZM16.8913 5C16.2147 5.06714 15.5895 5.39136 15.1448 5.90581C14.7002 6.42027 14.4698 7.08573 14.5013 7.765C15.7913 7.865 17.0463 6.4 16.8913 5Z" fill="black"/>
<path d="M29.71 14.5002L29.21 13.0602H27.245L26.745 14.5002H26.16L27.87 9.61521H28.62L30.33 14.5002H29.71ZM28.245 10.1652H28.21L27.385 12.5452H29.07L28.245 10.1652ZM31.075 10.8952H31.635V11.4652H31.665C31.7413 11.2585 31.8836 11.0827 32.07 10.9652C32.2665 10.8488 32.4917 10.7899 32.72 10.7952C32.9311 10.7926 33.1398 10.8388 33.33 10.9302C33.511 11.0192 33.6685 11.1493 33.79 11.3102C33.9276 11.4866 34.0279 11.689 34.085 11.9052C34.2244 12.4193 34.2244 12.9612 34.085 13.4752C34.0279 13.6914 33.9276 13.8938 33.79 14.0702C33.6685 14.2311 33.511 14.3612 33.33 14.4502C33.1398 14.5416 32.9311 14.5878 32.72 14.5852C32.4968 14.5945 32.2761 14.5353 32.0876 14.4155C31.899 14.2957 31.7515 14.1212 31.665 13.9152H31.635V15.9152H31.08L31.075 10.8952ZM32.575 14.0852C32.7139 14.0927 32.8527 14.0702 32.9821 14.0193C33.1115 13.9684 33.2285 13.8903 33.325 13.7902C33.5153 13.5723 33.6138 13.2892 33.6 13.0002V12.3902C33.6125 12.106 33.5139 11.828 33.325 11.6152C33.2293 11.5137 33.1127 11.4343 32.9831 11.3825C32.8536 11.3307 32.7143 11.3077 32.575 11.3152C32.4512 11.3144 32.3281 11.3329 32.21 11.3702C32.1044 11.3996 32.0046 11.447 31.915 11.5102C31.8313 11.5696 31.7614 11.6464 31.71 11.7352C31.6633 11.8193 31.6391 11.914 31.64 12.0102V13.3552C31.6383 13.4643 31.6623 13.5722 31.71 13.6702C31.7627 13.7595 31.8324 13.8376 31.915 13.9002C32.0046 13.9635 32.1044 14.0108 32.21 14.0402C32.3277 14.0697 32.4488 14.0832 32.57 14.0802L32.575 14.0852ZM35.145 10.8952H35.7V11.4652H35.73C35.8063 11.2585 35.9486 11.0827 36.135 10.9652C36.3315 10.8488 36.5567 10.7899 36.785 10.7952C36.9961 10.7926 37.2048 10.8388 37.395 10.9302C37.576 11.0192 37.7335 11.1493 37.855 11.3102C37.9927 11.4865 38.093 11.6889 38.15 11.9052C38.2894 12.4193 38.2894 12.9612 38.15 13.4752C38.093 13.6915 37.9927 13.8939 37.855 14.0702C37.7335 14.2311 37.576 14.3612 37.395 14.4502C37.2048 14.5416 36.9961 14.5878 36.785 14.5852C36.5618 14.5945 36.3411 14.5353 36.1526 14.4155C35.964 14.2957 35.8165 14.1212 35.73 13.9152H35.7V15.9152H35.14L35.145 10.8952ZM36.645 14.0852C36.7839 14.0927 36.9227 14.0702 37.0521 14.0193C37.1815 13.9684 37.2985 13.8903 37.395 13.7902C37.5853 13.5723 37.6838 13.2892 37.67 13.0002V12.3902C37.6825 12.106 37.5839 11.828 37.395 11.6152C37.2993 11.5137 37.1827 11.4343 37.0531 11.3825C36.9236 11.3307 36.7843 11.3077 36.645 11.3152C36.5212 11.3144 36.3981 11.3329 36.28 11.3702C36.1803 11.3981 36.0857 11.442 36 11.5002C35.9163 11.5596 35.8464 11.6364 35.795 11.7252C35.7483 11.8093 35.7241 11.904 35.725 12.0002V13.3452C35.7233 13.4543 35.7473 13.5622 35.795 13.6602C35.8477 13.7495 35.9174 13.8276 36 13.8902C36.0896 13.9535 36.1894 14.0008 36.295 14.0302C36.4094 14.0588 36.5271 14.0723 36.645 14.0702V14.0852ZM42.295 14.5852C41.9484 14.5927 41.6051 14.5155 41.295 14.3602C41.0133 14.2052 40.7692 13.9901 40.58 13.7302L41.015 13.3652C41.172 13.5681 41.3674 13.738 41.59 13.8652C41.8176 13.9861 42.0724 14.0464 42.33 14.0402C42.6188 14.062 42.905 13.9726 43.13 13.7902C43.2227 13.7057 43.2959 13.602 43.3442 13.4862C43.3926 13.3705 43.4151 13.2456 43.41 13.1202C43.4163 13.0204 43.4007 12.9203 43.3645 12.8271C43.3282 12.7339 43.2721 12.6496 43.2 12.5802C42.9961 12.4254 42.7576 12.3224 42.505 12.2802L42.105 12.1902C41.7297 12.122 41.3763 11.9642 41.075 11.7302C40.9562 11.6178 40.8634 11.4808 40.8029 11.3288C40.7425 11.1769 40.7159 11.0135 40.725 10.8502C40.7217 10.652 40.7627 10.4555 40.845 10.2752C40.9212 10.1116 41.0341 9.9679 41.175 9.85521C41.3246 9.74128 41.4942 9.65648 41.675 9.60521C41.8886 9.53777 42.1111 9.50239 42.335 9.50021C42.6619 9.49163 42.9861 9.56195 43.28 9.70521C43.5495 9.84461 43.7798 10.0491 43.95 10.3002L43.5 10.6502C43.3684 10.4679 43.1976 10.3176 43 10.2102C42.7795 10.0961 42.5332 10.041 42.285 10.0502C42.0227 10.0368 41.7631 10.1087 41.545 10.2552C41.4553 10.3249 41.3841 10.4157 41.3379 10.5195C41.2917 10.6233 41.2718 10.7369 41.28 10.8502C41.2709 10.952 41.2861 11.0545 41.3244 11.1492C41.3626 11.244 41.4228 11.3283 41.5 11.3952C41.71 11.5354 41.9466 11.6307 42.195 11.6752L42.595 11.7652C42.9838 11.8293 43.3462 12.0027 43.64 12.2652C43.7493 12.3822 43.8339 12.5199 43.8888 12.6702C43.9438 12.8206 43.968 12.9804 43.96 13.1402C43.9631 13.3497 43.9222 13.5575 43.84 13.7502C43.7576 13.9127 43.6397 14.0545 43.495 14.1652C43.3397 14.2977 43.1595 14.398 42.965 14.4602C42.7447 14.5369 42.5133 14.5774 42.28 14.5802L42.295 14.5852ZM45.73 14.5002C45.648 14.5064 45.5656 14.4953 45.4881 14.4678C45.4106 14.4402 45.3397 14.3968 45.28 14.3402C45.1792 14.2183 45.1275 14.0632 45.135 13.9052V11.3802H44.53V10.8802H44.865C44.9085 10.8857 44.9526 10.8823 44.9947 10.8702C45.0368 10.8582 45.076 10.8378 45.11 10.8102C45.1643 10.735 45.1892 10.6425 45.18 10.5502V9.88021H45.68V10.8802H46.5V11.3802H45.71V14.0002H46.445V14.5002H45.73ZM48.73 14.5852C48.5014 14.5874 48.2748 14.5414 48.065 14.4502C47.8734 14.3602 47.703 14.2307 47.565 14.0702C47.4199 13.8935 47.308 13.6919 47.235 13.4752C47.0766 12.9673 47.0766 12.4232 47.235 11.9152C47.3059 11.6976 47.4179 11.4956 47.565 11.3202C47.7014 11.1567 47.8721 11.0253 48.065 10.9352C48.2748 10.8441 48.5014 10.7981 48.73 10.8002C48.9572 10.7972 49.1823 10.8433 49.39 10.9352C49.5829 11.0253 49.7537 11.1567 49.89 11.3202C50.0402 11.4942 50.1541 11.6965 50.225 11.9152C50.3834 12.4232 50.3834 12.9673 50.225 13.4752C50.152 13.693 50.0383 13.8949 49.89 14.0702C49.7521 14.2307 49.5816 14.3602 49.39 14.4502C49.1773 14.5426 48.9469 14.5869 48.715 14.5802L48.73 14.5852ZM48.73 14.0852C48.8659 14.0913 49.0017 14.0697 49.1289 14.0215C49.2561 13.9734 49.3722 13.8998 49.47 13.8052C49.5729 13.6894 49.6512 13.5539 49.7002 13.4069C49.7492 13.26 49.7678 13.1046 49.755 12.9502V12.4502C49.7678 12.2958 49.7492 12.1405 49.7002 11.9935C49.6512 11.8465 49.5729 11.711 49.47 11.5952C49.2638 11.4107 48.9968 11.3087 48.72 11.3087C48.4433 11.3087 48.1763 11.4107 47.97 11.5952C47.8672 11.711 47.7889 11.8465 47.7399 11.9935C47.6909 12.1405 47.6722 12.2958 47.685 12.4502V12.9502C47.6722 13.1046 47.6909 13.26 47.7399 13.4069C47.7889 13.5539 47.8672 13.6894 47.97 13.8052C48.0684 13.9004 48.1853 13.9744 48.3135 14.0225C48.4416 14.0707 48.5783 14.092 48.715 14.0852H48.73ZM51.28 14.5002V10.8902H51.84V11.5552H51.875C51.9482 11.3732 52.0691 11.2143 52.225 11.0952C52.426 10.9485 52.6716 10.8761 52.92 10.8902H53.135V11.4652H52.805C52.5546 11.4511 52.3056 11.512 52.09 11.6402C52.0152 11.6834 51.9528 11.7453 51.909 11.8198C51.8652 11.8942 51.8414 11.9788 51.84 12.0652V14.5002H51.28ZM55.175 14.5852C54.9441 14.5931 54.7141 14.5522 54.5 14.4652C54.3084 14.3752 54.138 14.2457 54 14.0852C53.8549 13.9085 53.743 13.7069 53.67 13.4902C53.5209 12.9809 53.5209 12.4395 53.67 11.9302C53.741 11.7126 53.853 11.5106 54 11.3352C54.1368 11.1721 54.3074 11.0407 54.5 10.9502C54.7115 10.8588 54.9397 10.8128 55.17 10.8152C55.394 10.8121 55.6159 10.8582 55.82 10.9502C56.012 11.0351 56.1828 11.1614 56.32 11.3202C56.4605 11.4819 56.566 11.6708 56.63 11.8752C56.7058 12.1024 56.743 12.3407 56.74 12.5802V12.8452H54.15V13.0002C54.1489 13.1481 54.1726 13.2951 54.22 13.4352C54.2686 13.562 54.3397 13.6789 54.43 13.7802C54.5248 13.879 54.6388 13.9573 54.765 14.0102C54.9096 14.0683 55.0642 14.0972 55.22 14.0952C55.4297 14.1008 55.6364 14.0452 55.815 13.9352C55.9909 13.8248 56.1301 13.6647 56.215 13.4752L56.615 13.7602C56.496 14.0092 56.3065 14.2179 56.07 14.3602C55.7938 14.5186 55.4781 14.5949 55.16 14.5802L55.175 14.5852ZM55.175 11.2752C55.0305 11.2729 54.8873 11.3019 54.755 11.3602C54.6302 11.4107 54.5176 11.4874 54.425 11.5852C54.3338 11.6878 54.2626 11.8065 54.215 11.9352C54.1628 12.0742 54.1373 12.2218 54.14 12.3702V12.4202H56.14V12.3452C56.155 12.0639 56.06 11.7877 55.875 11.5752C55.7874 11.4727 55.6773 11.3919 55.5533 11.339C55.4292 11.286 55.2947 11.2625 55.16 11.2702L55.175 11.2752Z" fill="black"/>
</svg>
