<svg width="24" height="10" viewBox="0 0 24 10" fill="none" xmlns="http://www.w3.org/2000/svg">
<path d="M17.8181 0C16.7675 0.00290601 15.7517 0.388908 14.9501 1.0898C14.1486 1.7907 13.6129 2.76137 13.4378 3.8303H10.3197C10.1304 2.77414 9.58868 1.81971 8.78852 1.13273C7.98836 0.445756 6.9803 0.0696129 5.93938 0.0696129C4.89845 0.0696129 3.8904 0.445756 3.09024 1.13273C2.29008 1.81971 1.74834 2.77414 1.55909 3.8303H0.742422C0.54552 3.8303 0.356682 3.91101 0.21745 4.05468C0.0782193 4.19834 0 4.39319 0 4.59636C0 4.79954 0.0782193 4.99439 0.21745 5.13805C0.356682 5.28171 0.54552 5.36242 0.742422 5.36242H1.55909C1.74834 6.41859 2.29008 7.37302 3.09024 8.05999C3.8904 8.74697 4.89845 9.12311 5.93938 9.12311C6.9803 9.12311 7.98836 8.74697 8.78852 8.05999C9.58868 7.37302 10.1304 6.41859 10.3197 5.36242H13.4378C13.6271 6.41859 14.1688 7.37302 14.969 8.05999C15.7692 8.74697 16.7772 9.12311 17.8181 9.12311C18.8591 9.12311 19.8671 8.74697 20.6673 8.05999C21.4674 7.37302 22.0092 6.41859 22.1984 5.36242H23.0151C23.212 5.36242 23.4008 5.28171 23.5401 5.13805C23.6793 4.99439 23.7575 4.79954 23.7575 4.59636C23.7575 4.39319 23.6793 4.19834 23.5401 4.05468C23.4008 3.91101 23.212 3.8303 23.0151 3.8303H22.1984C22.0233 2.76137 21.4877 1.7907 20.6861 1.0898C19.8846 0.388908 18.8688 0.00290601 17.8181 0ZM17.8181 7.66061C17.2308 7.66061 16.6566 7.48089 16.1683 7.14419C15.6799 6.80748 15.2993 6.32892 15.0745 5.769C14.8497 5.20908 14.7909 4.59296 14.9055 3.99856C15.0201 3.40415 15.3029 2.85816 15.7182 2.42962C16.1336 2.00108 16.6627 1.70923 17.2388 1.591C17.8148 1.47277 18.4119 1.53345 18.9546 1.76537C19.4972 1.9973 19.961 2.39005 20.2873 2.89396C20.6137 3.39787 20.7878 3.99031 20.7878 4.59636C20.7878 5.40905 20.4749 6.18845 19.918 6.76311C19.3611 7.33777 18.6057 7.66061 17.8181 7.66061ZM5.93938 7.66061C5.35203 7.66061 4.77787 7.48089 4.28951 7.14419C3.80114 6.80748 3.42051 6.32892 3.19574 5.769C2.97097 5.20908 2.91216 4.59296 3.02675 3.99856C3.14134 3.40415 3.42417 2.85816 3.83949 2.42962C4.25481 2.00108 4.78396 1.70923 5.36002 1.591C5.93608 1.47277 6.53319 1.53345 7.07583 1.76537C7.61847 1.9973 8.08227 2.39005 8.40858 2.89396C8.7349 3.39787 8.90907 3.99031 8.90907 4.59636C8.90907 5.40905 8.59619 6.18845 8.03926 6.76311C7.48234 7.33777 6.72699 7.66061 5.93938 7.66061Z" fill="black"/>
</svg>
