<svg width="72" height="24" viewBox="0 0 72 24" fill="none" xmlns="http://www.w3.org/2000/svg">
<path d="M9.28695 17.8301L14.552 12.5801L16.407 14.4301L10.167 17.9001C10.0502 17.9658 9.91845 18.0003 9.78445 18.0003C9.65046 18.0003 9.51873 17.9658 9.40195 17.9001L9.28695 17.8301ZM14.002 12.0501L9.00195 17.0501V7.05009L14.002 12.0501ZM17.147 9.96509L19.602 11.3251C19.7198 11.3898 19.8181 11.4849 19.8865 11.6006C19.955 11.7162 19.9911 11.8482 19.9911 11.9826C19.9911 12.117 19.955 12.2489 19.8865 12.3646C19.8181 12.4803 19.7198 12.5754 19.602 12.6401L17.102 14.0351L15.102 12.0351L17.147 9.96509ZM9.24195 6.20009C9.28697 6.15566 9.33736 6.11703 9.39195 6.08509C9.50873 6.01938 9.64046 5.98486 9.77445 5.98486C9.90845 5.98486 10.0402 6.01938 10.157 6.08509L16.482 9.58509L14.557 11.5001L9.24195 6.20009Z" fill="black"/>
<path d="M29.8153 13.7848C29.7431 14.0264 29.5824 14.2317 29.3653 14.3598C29.0898 14.5204 28.7739 14.5985 28.4553 14.5848C28.1723 14.588 27.8916 14.5336 27.6303 14.4248C27.3833 14.3087 27.1661 14.1377 26.9953 13.9248C26.8071 13.6901 26.6646 13.4221 26.5753 13.1348C26.473 12.7807 26.4241 12.4133 26.4303 12.0448C26.4236 11.6796 26.4725 11.3154 26.5753 10.9648C26.6602 10.6747 26.805 10.4056 27.0003 10.1748C27.1782 9.95887 27.4042 9.78762 27.6603 9.67482C27.9254 9.55971 28.2113 9.50015 28.5003 9.49982C28.8698 9.48094 29.2365 9.57265 29.5535 9.76325C29.8706 9.95385 30.1236 10.2347 30.2803 10.5698L29.7803 10.8648C29.6763 10.6126 29.4983 10.3978 29.2698 10.2488C29.0413 10.0997 28.773 10.0234 28.5003 10.0298C28.2973 10.0273 28.0962 10.0683 27.9103 10.1498C27.736 10.2226 27.5792 10.3317 27.4503 10.4698C27.3203 10.6157 27.2201 10.7855 27.1553 10.9698C27.0825 11.1821 27.0469 11.4054 27.0503 11.6298V12.4198C27.0475 12.6458 27.083 12.8707 27.1553 13.0848C27.2201 13.2691 27.3203 13.439 27.4503 13.5848C27.5908 13.7301 27.7615 13.8428 27.9503 13.9148C28.1513 13.9914 28.3652 14.0287 28.5803 14.0248C28.7492 14.0274 28.9176 14.0055 29.0803 13.9598C29.2254 13.9175 29.3612 13.8479 29.4803 13.7548C29.5965 13.6678 29.6906 13.5548 29.7553 13.4248C29.8279 13.2685 29.8621 13.0971 29.8553 12.9248V12.4248H28.7703V11.9248H30.4203V14.4248H29.8153V13.7848ZM32.8153 14.5848C32.5927 14.5896 32.3715 14.5488 32.1653 14.4648C31.9737 14.3749 31.8033 14.2454 31.6653 14.0848C31.5212 13.9112 31.4094 13.713 31.3353 13.4998C31.1769 12.9919 31.1769 12.4478 31.3353 11.9398C31.4061 11.7222 31.5182 11.5202 31.6653 11.3448C31.8017 11.1813 31.9724 11.0499 32.1653 10.9598C32.375 10.8685 32.6016 10.8225 32.8303 10.8248C33.0601 10.8173 33.2887 10.8599 33.5003 10.9498C33.6932 11.0399 33.8639 11.1713 34.0003 11.3348C34.1506 11.5088 34.2645 11.7111 34.3353 11.9298C34.4937 12.4378 34.4937 12.9819 34.3353 13.4898C34.2624 13.7076 34.1487 13.9095 34.0003 14.0848C33.8623 14.2454 33.6919 14.3749 33.5003 14.4648C33.2953 14.5536 33.0737 14.5979 32.8503 14.5948L32.8153 14.5848ZM32.8153 14.0848C32.9512 14.0909 33.0869 14.0693 33.2142 14.0211C33.3414 13.973 33.4575 13.8994 33.5553 13.8048C33.6582 13.689 33.7365 13.5535 33.7854 13.4065C33.8344 13.2596 33.8531 13.1042 33.8403 12.9498V12.4498C33.8531 12.2954 33.8344 12.1401 33.7854 11.9931C33.7365 11.8461 33.6582 11.7106 33.5553 11.5948C33.349 11.4103 33.082 11.3083 32.8053 11.3083C32.5286 11.3083 32.2615 11.4103 32.0553 11.5948C31.9524 11.7106 31.8741 11.8461 31.8251 11.9931C31.7761 12.1401 31.7575 12.2954 31.7703 12.4498V12.9498C31.7575 13.1042 31.7761 13.2596 31.8251 13.4065C31.8741 13.5535 31.9524 13.689 32.0553 13.8048C32.1566 13.9032 32.2776 13.979 32.4103 14.0273C32.543 14.0756 32.6844 14.0952 32.8253 14.0848H32.8153ZM36.7303 14.5848C36.5016 14.587 36.275 14.541 36.0653 14.4498C35.8737 14.3599 35.7033 14.2304 35.5653 14.0698C35.4201 13.8931 35.3083 13.6915 35.2353 13.4748C35.0769 12.9669 35.0769 12.4228 35.2353 11.9148C35.3061 11.6972 35.4182 11.4952 35.5653 11.3198C35.7017 11.1563 35.8724 11.0249 36.0653 10.9348C36.275 10.8435 36.5016 10.7975 36.7303 10.7998C36.9574 10.7969 37.1826 10.8429 37.3903 10.9348C37.5832 11.0249 37.7539 11.1563 37.8903 11.3198C38.0406 11.4938 38.1545 11.6961 38.2253 11.9148C38.3837 12.4228 38.3837 12.9669 38.2253 13.4748C38.1524 13.6926 38.0387 13.8945 37.8903 14.0698C37.7523 14.2304 37.5819 14.3599 37.3903 14.4498C37.1868 14.5379 36.967 14.5822 36.7453 14.5798L36.7303 14.5848ZM36.7303 14.0848C36.8662 14.0909 37.0019 14.0693 37.1292 14.0211C37.2564 13.973 37.3725 13.8994 37.4703 13.8048C37.5732 13.689 37.6515 13.5535 37.7004 13.4065C37.7494 13.2596 37.7681 13.1042 37.7553 12.9498V12.4498C37.7681 12.2954 37.7494 12.1401 37.7004 11.9931C37.6515 11.8461 37.5732 11.7106 37.4703 11.5948C37.264 11.4103 36.997 11.3083 36.7203 11.3083C36.4436 11.3083 36.1765 11.4103 35.9703 11.5948C35.8619 11.7108 35.7789 11.848 35.7264 11.9978C35.6739 12.1475 35.6531 12.3066 35.6653 12.4648V12.9648C35.6525 13.1192 35.6711 13.2746 35.7201 13.4215C35.7691 13.5685 35.8474 13.704 35.9503 13.8198C36.0522 13.9189 36.174 13.9951 36.3076 14.0434C36.4412 14.0916 36.5836 14.1109 36.7253 14.0998L36.7303 14.0848ZM42.3253 14.8948C42.3359 15.059 42.3003 15.2228 42.2225 15.3677C42.1448 15.5127 42.0279 15.6329 41.8853 15.7148C41.4799 15.9178 41.0277 16.0093 40.5753 15.9798C40.1555 16.0113 39.7348 15.9319 39.3553 15.7498C39.2424 15.6818 39.1498 15.5846 39.0874 15.4685C39.0249 15.3523 38.9948 15.2216 39.0003 15.0898C38.9916 14.9224 39.0471 14.7579 39.1553 14.6298C39.2714 14.5138 39.4164 14.4309 39.5753 14.3898V14.3148C39.4926 14.2759 39.4207 14.2174 39.3658 14.1444C39.311 14.0713 39.2748 13.986 39.2605 13.8957C39.2462 13.8055 39.2542 13.7131 39.2838 13.6267C39.3134 13.5402 39.3637 13.4624 39.4303 13.3998C39.5621 13.2951 39.716 13.2216 39.8803 13.1848C39.6751 13.0887 39.5017 12.9361 39.3803 12.7448C39.2609 12.5439 39.2003 12.3135 39.2053 12.0798C39.2048 11.9081 39.2388 11.7381 39.3053 11.5798C39.3679 11.4316 39.4617 11.2986 39.5803 11.1898C39.7036 11.0762 39.848 10.9878 40.0053 10.9298C40.1853 10.8675 40.3748 10.8371 40.5653 10.8398C40.8011 10.8358 41.035 10.8835 41.2503 10.9798V10.9148C41.2452 10.792 41.2803 10.6709 41.3503 10.5698C41.3877 10.5216 41.4366 10.4835 41.4925 10.4591C41.5484 10.4346 41.6095 10.4246 41.6703 10.4298H42.2103V10.9298H41.5003V11.1598C41.6296 11.2704 41.7322 11.4089 41.8003 11.5648C41.8764 11.7292 41.9141 11.9087 41.9103 12.0898C41.911 12.2615 41.8769 12.4316 41.8103 12.5898C41.7468 12.7417 41.6513 12.8782 41.5303 12.9898C41.4067 13.1007 41.2622 13.1857 41.1053 13.2398C40.9253 13.3021 40.7358 13.3326 40.5453 13.3298C40.4277 13.3297 40.3105 13.318 40.1953 13.2948C40.0781 13.3248 39.9666 13.3738 39.8653 13.4398C39.8199 13.466 39.7824 13.504 39.7569 13.5498C39.7313 13.5956 39.7187 13.6474 39.7203 13.6998C39.7184 13.7478 39.7326 13.7951 39.7607 13.8341C39.7888 13.873 39.8291 13.9015 39.8753 13.9148C40.0045 13.9558 40.1398 13.9744 40.2753 13.9698H41.0453C41.3906 13.9413 41.7351 14.0332 42.0203 14.2298C42.1198 14.3133 42.199 14.4184 42.2519 14.5371C42.3047 14.6558 42.3298 14.785 42.3253 14.9148V14.8948ZM41.8253 14.9348C41.8269 14.8672 41.8123 14.8001 41.7827 14.7392C41.7531 14.6783 41.7094 14.6254 41.6553 14.5848C41.4791 14.4854 41.2768 14.4419 41.0753 14.4598H39.8703C39.7677 14.4955 39.6796 14.5636 39.6191 14.6538C39.5587 14.744 39.5293 14.8514 39.5353 14.9598C39.5343 15.0358 39.5494 15.1112 39.5795 15.181C39.6097 15.2508 39.6543 15.3134 39.7103 15.3648C39.8859 15.4944 40.103 15.5549 40.3203 15.5348H40.8203C41.0719 15.5486 41.323 15.4987 41.5503 15.3898C41.6316 15.3465 41.6994 15.2816 41.7462 15.2022C41.793 15.1228 41.8169 15.032 41.8153 14.9398L41.8253 14.9348ZM40.5703 12.8398C40.7726 12.8499 40.9721 12.7898 41.1353 12.6698C41.208 12.603 41.2646 12.5206 41.301 12.4289C41.3373 12.3371 41.3525 12.2383 41.3453 12.1398V11.9648C41.3497 11.8711 41.3332 11.7776 41.2968 11.6911C41.2605 11.6046 41.2053 11.5273 41.1353 11.4648C40.9684 11.3498 40.7705 11.2882 40.5678 11.2882C40.3651 11.2882 40.1672 11.3498 40.0003 11.4648C39.9303 11.5273 39.8751 11.6046 39.8387 11.6911C39.8024 11.7776 39.7859 11.8711 39.7903 11.9648V12.1848C39.7831 12.2833 39.7982 12.3821 39.8346 12.4739C39.871 12.5656 39.9276 12.648 40.0003 12.7148C40.1647 12.8266 40.362 12.8795 40.5603 12.8648L40.5703 12.8398ZM43.5953 14.4998C43.5133 14.506 43.4309 14.4949 43.3534 14.4674C43.2759 14.4398 43.205 14.3964 43.1453 14.3398C43.0463 14.2228 42.9946 14.073 43.0003 13.9198V9.31982H43.5603V13.9998H44.0903V14.4998H43.5953ZM46.2653 14.5848C46.035 14.5872 45.8067 14.5412 45.5953 14.4498C45.4037 14.3599 45.2333 14.2304 45.0953 14.0698C44.9501 13.8931 44.8383 13.6915 44.7653 13.4748C44.6161 12.9655 44.6161 12.4241 44.7653 11.9148C44.8361 11.6972 44.9482 11.4952 45.0953 11.3198C45.232 11.1567 45.4026 11.0253 45.5953 10.9348C45.8067 10.8434 46.035 10.7974 46.2653 10.7998C46.4892 10.7967 46.7111 10.8428 46.9153 10.9348C47.1073 11.0197 47.278 11.1461 47.4153 11.3048C47.5556 11.4666 47.6611 11.6555 47.7253 11.8598C47.8011 12.087 47.8383 12.3253 47.8353 12.5648V12.8298H45.2403V12.9748C45.2391 13.1227 45.2628 13.2698 45.3103 13.4098C45.3586 13.5367 45.4298 13.6536 45.5203 13.7548C45.615 13.8536 45.7291 13.9319 45.8553 13.9848C45.9999 14.0429 46.1545 14.0718 46.3103 14.0698C46.52 14.0754 46.7267 14.0198 46.9053 13.9098C47.0812 13.7994 47.2204 13.6393 47.3053 13.4498L47.7053 13.7348C47.5863 13.9839 47.3968 14.1925 47.1603 14.3348C46.888 14.4948 46.576 14.5745 46.2603 14.5648L46.2653 14.5848ZM46.2653 11.2748C46.1208 11.2725 45.9775 11.3015 45.8453 11.3598C45.7204 11.4103 45.6079 11.4871 45.5153 11.5848C45.4239 11.6872 45.3526 11.806 45.3053 11.9348C45.253 12.0738 45.2276 12.2214 45.2303 12.3698V12.4198H47.2303V12.3448C47.2447 12.0636 47.1498 11.7876 46.9653 11.5748C46.8775 11.4758 46.7685 11.3979 46.6465 11.3468C46.5244 11.2957 46.3924 11.2728 46.2603 11.2798L46.2653 11.2748ZM50.4603 14.4998V9.60482H52.4053C52.5894 9.59392 52.7736 9.62215 52.946 9.68765C53.1184 9.75315 53.2749 9.85443 53.4053 9.98482C53.6489 10.2595 53.7762 10.6181 53.7603 10.9848C53.7814 11.3614 53.6539 11.7312 53.4053 12.0148C53.2735 12.1427 53.1165 12.2416 52.9443 12.3053C52.7721 12.369 52.5885 12.3961 52.4053 12.3848H51.0453V14.4648L50.4603 14.4998ZM51.0503 11.8948H52.4103C52.607 11.9087 52.8012 11.8439 52.9503 11.7148C53.0155 11.6494 53.0665 11.5712 53.1 11.4852C53.1336 11.3992 53.149 11.3071 53.1453 11.2148V10.8498C53.149 10.7575 53.1336 10.6655 53.1 10.5794C53.0665 10.4934 53.0155 10.4152 52.9503 10.3498C52.8012 10.2207 52.607 10.156 52.4103 10.1698H51.0503V11.8948ZM55.2453 14.4998C55.1633 14.506 55.0809 14.4949 55.0034 14.4674C54.9259 14.4398 54.855 14.3964 54.7953 14.3398C54.6963 14.2228 54.6446 14.073 54.6503 13.9198V9.31982H55.2103V13.9998H55.7403V14.4998H55.2453ZM59.1803 14.4998C59.0965 14.5075 59.0122 14.4962 58.9334 14.4667C58.8546 14.4373 58.7835 14.3905 58.7253 14.3298C58.6319 14.2077 58.5732 14.0626 58.5553 13.9098H58.5003C58.4325 14.1168 58.2946 14.2937 58.1103 14.4098C57.9138 14.5262 57.6886 14.5851 57.4603 14.5798C57.1353 14.5989 56.8153 14.4934 56.5653 14.2848C56.4588 14.1816 56.3756 14.0569 56.3212 13.9189C56.2669 13.7809 56.2427 13.6329 56.2503 13.4848C56.2422 13.3336 56.2717 13.1827 56.3363 13.0457C56.4009 12.9087 56.4985 12.7898 56.6203 12.6998C56.9729 12.4904 57.3813 12.3944 57.7903 12.4248H58.5003V12.0698C58.5079 11.9623 58.4932 11.8544 58.4571 11.7528C58.421 11.6513 58.3642 11.5583 58.2903 11.4798C58.1104 11.3297 57.8788 11.2561 57.6453 11.2748C57.4501 11.2679 57.2572 11.3183 57.0903 11.4198C56.9415 11.5215 56.8169 11.6547 56.7253 11.8098L56.3903 11.4948C56.4975 11.2877 56.6602 11.1146 56.8603 10.9948C57.104 10.8473 57.3856 10.7743 57.6703 10.7848C58.0313 10.7675 58.3864 10.8812 58.6703 11.1048C58.7933 11.2179 58.8897 11.3568 58.9528 11.5115C59.0159 11.6662 59.0441 11.833 59.0353 11.9998V13.9998H59.4503V14.4998H59.1803ZM57.5703 14.1098C57.7003 14.1108 57.8298 14.094 57.9553 14.0598C58.0627 14.0312 58.1643 13.9838 58.2553 13.9198C58.3343 13.8642 58.4007 13.7927 58.4503 13.7098C58.497 13.6312 58.5212 13.5413 58.5203 13.4498V12.8448H57.7803C57.537 12.8282 57.2937 12.8765 57.0753 12.9848C57.0068 13.0273 56.9508 13.0871 56.913 13.1583C56.8753 13.2294 56.8571 13.3093 56.8603 13.3898V13.5348C56.8567 13.6141 56.8721 13.6931 56.9052 13.7653C56.9382 13.8374 56.988 13.9007 57.0503 13.9498C57.1966 14.0525 57.3715 14.1067 57.5503 14.1048L57.5703 14.1098ZM62.5003 10.8798H63.0553L61.4403 15.3298C61.4059 15.4214 61.3641 15.51 61.3153 15.5948C61.2782 15.6646 61.2251 15.7246 61.1603 15.7698C61.0906 15.8152 61.0123 15.8458 60.9303 15.8598C60.8216 15.881 60.711 15.8911 60.6003 15.8898H60.3153V15.3898H60.8803L61.1553 14.6198L59.8053 10.8698H60.3653L61.2353 13.3248L61.4053 13.9148H61.4403L61.6353 13.3248L62.5003 10.8798Z" fill="black"/>
</svg>
