<svg width="54" height="33" viewBox="0 0 54 33" fill="none" xmlns="http://www.w3.org/2000/svg">
<path d="M34.7672 9.71322V10.3136H39.9639C40.3077 10.3136 40.8292 10.3136 41.1742 10.6599C41.5193 11.0037 41.5193 11.5199 41.5193 11.8663V17.0311C41.5193 17.3736 41.5193 17.8928 41.1742 18.2353C40.8292 18.58 40.3077 18.58 39.9639 18.58H37.4536C37.0205 18.58 36.4569 18.58 36.2411 18.1054C36.0244 17.6332 36.3274 17.2024 36.5875 16.8578L39.9639 12.3843H34.7672L32.6935 15.1381C32.3466 15.5993 32.0449 15.9986 32.0449 16.514C32.0449 17.0311 32.3226 17.404 32.6935 17.8928L33.2145 18.58C33.73 19.2682 34.2511 19.9579 34.9428 20.3022C35.6368 20.6455 36.4569 20.6455 37.5832 20.6455H39.8344C41.1309 20.6455 43.0803 20.6455 44.3768 19.3558C45.6748 18.0633 45.6748 16.1701 45.6748 15.4798V13.4142C45.6748 12.7254 45.6748 10.8316 44.3768 9.54149C43.0803 8.25104 41.1309 8.25104 39.8344 8.25104H36.2411C35.8961 8.25104 35.4625 8.25104 35.1179 8.59395C34.7672 8.93858 34.7672 9.36776 34.7672 9.71322Z" fill="white"/>
<path d="M28.5392 12.3847H33.7299L27.5006 20.6484H22.3086L28.5392 12.3847Z" fill="white"/>
<path d="M8.29102 13.8434C8.29102 13.5006 8.29102 13.0701 8.63694 12.725C8.98375 12.384 9.41463 12.384 9.76229 12.384H18.4585C19.5827 12.384 20.4062 12.384 21.0972 12.725C21.79 13.0701 22.3088 13.7593 22.8307 14.4468L23.3475 15.1378C23.7154 15.6259 23.9973 15.9982 23.9973 16.5137C23.9973 17.0308 23.6968 17.4305 23.3475 17.8925L21.271 20.6477H16.0779L19.453 16.1698C19.714 15.827 20.0165 15.3961 19.8007 14.9203C19.5827 14.4468 19.0212 14.4468 18.586 14.4468H14.522V24.7783H10.3683V14.4468H8.29102V13.8434Z" fill="white"/>
</svg>
