<svg width="13" height="14" viewBox="0 0 13 14" fill="none" xmlns="http://www.w3.org/2000/svg">
<path d="M1.29353 6.482C1.29353 5.65177 1.54009 4.84018 2.00203 4.14987C2.46397 3.45956 3.12054 2.92153 3.88872 2.60381C4.6569 2.2861 5.50218 2.20297 6.31767 2.36494C7.13316 2.52691 7.88224 2.9267 8.47018 3.51377C9.05811 4.10083 9.4585 4.84879 9.62071 5.66307C9.78293 6.47734 9.69967 7.32137 9.38148 8.0884C9.06329 8.85543 8.52446 9.51103 7.83312 9.97228C7.14178 10.4335 6.32898 10.6797 5.49751 10.6797C4.38255 10.6797 3.31325 10.2375 2.52485 9.45024C1.73645 8.66301 1.29353 7.59531 1.29353 6.482ZM5.49751 0.992676C4.03948 0.992676 2.64117 1.57101 1.61018 2.60046C0.579201 3.62991 0 5.02614 0 6.482C0 7.93786 0.579201 9.33409 1.61018 10.3635C2.64117 11.393 4.03948 11.9713 5.49751 11.9713C6.73552 11.9616 7.93747 11.554 8.92537 10.8089L11.8358 13.715C11.8914 13.789 11.9623 13.8502 12.0437 13.8945C12.125 13.9388 12.215 13.9651 12.3074 13.9717C12.3998 13.9783 12.4926 13.9649 12.5794 13.9325C12.6662 13.9002 12.745 13.8496 12.8106 13.7842C12.8761 13.7187 12.9268 13.64 12.9592 13.5533C12.9916 13.4667 13.0049 13.374 12.9984 13.2817C12.9918 13.1894 12.9655 13.0996 12.9211 13.0184C12.8767 12.9372 12.8154 12.8664 12.7413 12.8109L9.83085 9.90476C10.5868 8.9235 10.9961 7.71998 10.995 6.482C10.9959 5.76198 10.8547 5.04884 10.5795 4.38331C10.3044 3.71777 9.9006 3.11287 9.39131 2.60314C8.88202 2.0934 8.27717 1.68883 7.61129 1.4125C6.94541 1.13618 6.23154 0.993523 5.51045 0.992676L5.49751 0.992676Z" fill="black"/>
</svg>
