<svg width="14" height="11" viewBox="0 0 14 11" fill="none" xmlns="http://www.w3.org/2000/svg">
<path fill-rule="evenodd" clip-rule="evenodd" d="M0.93504 4.6913C4.58617 3.15341 7.02086 2.13954 8.23901 1.64969C11.7172 0.251065 12.4399 0.00810807 12.911 8.55384e-05C13.0146 -0.00167893 13.2463 0.0231448 13.3963 0.140861C13.523 0.240258 13.5579 0.37453 13.5746 0.468769C13.5912 0.563009 13.612 0.777692 13.5955 0.945432C13.4071 2.86004 12.5914 7.50632 12.1765 9.65068C12.001 10.5581 11.6553 10.8623 11.3207 10.8921C10.5933 10.9568 10.041 10.4274 9.33659 9.98094C8.23425 9.28241 7.61151 8.84753 6.54153 8.16583C5.30497 7.37807 6.10658 6.94504 6.81126 6.23744C6.99569 6.05225 10.2003 3.23429 10.2623 2.97866C10.2701 2.94669 10.2773 2.82751 10.204 2.76458C10.1308 2.70165 10.0227 2.72317 9.94472 2.74029C9.83421 2.76454 8.07321 3.8898 4.66184 6.11606C4.162 6.44789 3.70926 6.60956 3.30362 6.60109C2.85643 6.59175 1.99622 6.35665 1.35674 6.15568C0.572395 5.90919 -0.0509875 5.77887 0.00329511 5.36026C0.0315688 5.14222 0.342149 4.91923 0.93504 4.6913Z" fill="#767D89"/>
</svg>
